<?xml version="1.0" encoding="utf-8"?>
<!-- Generator: Adobe Illustrator 16.0.0, SVG Export Plug-In . SVG Version: 6.00 Build 0)  -->
<!DOCTYPE svg PUBLIC "-//W3C//DTD SVG 1.1//EN" "http://www.w3.org/Graphics/SVG/1.1/DTD/svg11.dtd">
<svg version="1.1"
	 id="svg2" xmlns:osb="http://www.openswatchbook.org/uri/2009/osb" xmlns:dc="http://purl.org/dc/elements/1.1/" xmlns:cc="http://creativecommons.org/ns#" xmlns:rdf="http://www.w3.org/1999/02/22-rdf-syntax-ns#" xmlns:svg="http://www.w3.org/2000/svg"
	 xmlns="http://www.w3.org/2000/svg" xmlns:xlink="http://www.w3.org/1999/xlink" x="0px" y="0px" width="86px" height="86px"
	 viewBox="0 0 86 86" enable-background="new 0 0 86 86" xml:space="preserve">
<text transform="matrix(0.9738 0 0 1 7.6011 58.2852)" fill="#FFFFFF" font-family="'ChalkboardSE-Bold'" font-size="34.5577">#%^</text>
<g id="layer2_1_" transform="translate(0,-4)">
	<path fill="#A830B2" d="M85.02,46.5c0,0.36,0,40.44,0,40.44c0,0.77-0.619,1.39-1.38,1.39H3.62c-0.77,0-1.38-0.62-1.38-1.39
		c0,0,0-40.041,0-40.44c0-3.28,0.37-6.48,1.08-9.55C7.6,18.45,24.02,4.67,43.63,4.67C66.49,4.67,85.02,23.4,85.02,46.5z"/>
	<path fill="#A830B2" d="M3.62,88.33H2.65c-0.77,0-1.38-0.58-1.38-1.3c0,0,0-37.49,0-37.86c0-4.27,0.72-8.37,2.05-12.22
		c-0.71,3.07-1.08,6.27-1.08,9.55c0,0.4,0,40.44,0,40.44C2.24,87.71,2.85,88.33,3.62,88.33z"/>
</g>
<text transform="matrix(0.9738 0 0 1 6.6318 58.2852)" fill="#FFFFFF" font-family="'ChalkboardSE-Bold'" font-size="34.5577">#%^</text>
</svg>
